<?xml version="1.0" encoding="utf-8"?>
<!-- Generator: Adobe Illustrator 25.4.1, SVG Export Plug-In . SVG Version: 6.00 Build 0)  -->
<svg version="1.1" id="Layer_1" xmlns="http://www.w3.org/2000/svg" xmlns:xlink="http://www.w3.org/1999/xlink" x="0px" y="0px"
	 viewBox="0 0 36 36" style="enable-background:new 0 0 36 36;" xml:space="preserve">
<style type="text/css">
	.st0{fill:#FFFFFF;}
	.st1{fill:#FFFFFF;fill-opacity:0;}
</style>
<path class="st0" d="M19.6,18l4.9-4.9c0.4-0.4,0.3-1.1-0.1-1.4c-0.4-0.3-0.9-0.3-1.3,0l-4.9,4.8l-4.9-4.9c-0.4-0.4-1.1-0.3-1.4,0.1
	c-0.3,0.4-0.3,0.9,0,1.3l4.9,4.9L12,22.7c-0.4,0.4-0.5,1-0.1,1.4s1,0.5,1.4,0.1c0,0,0.1-0.1,0.1-0.1l4.8-4.8l4.7,4.7
	c0.4,0.4,1.1,0.3,1.4-0.1c0.3-0.4,0.3-0.9,0-1.3L19.6,18z"/>
<path class="st0" d="M18,34C9.2,34,2,26.8,2,18S9.2,2,18,2s16,7.2,16,16S26.8,34,18,34z M18,4C10.3,4,4,10.3,4,18s6.3,14,14,14
	s14-6.3,14-14S25.7,4,18,4z"/>
<rect class="st1" width="36" height="36"/>
</svg>
