<?xml version="1.0" encoding="utf-8"?>
<!-- Generator: Adobe Illustrator 25.4.1, SVG Export Plug-In . SVG Version: 6.00 Build 0)  -->
<svg version="1.1" id="Layer_1" xmlns="http://www.w3.org/2000/svg" xmlns:xlink="http://www.w3.org/1999/xlink" x="0px" y="0px"
	 viewBox="0 0 24 24" style="enable-background:new 0 0 24 24;" xml:space="preserve">
<style type="text/css">
	.st0{fill-rule:evenodd;clip-rule:evenodd;fill:#069696;}
</style>
<path class="st0" d="M11.8,6.6c0.4-0.3,0.9-0.3,1.2,0.1l4,4.6c0.3,0.3,0.3,0.8,0,1.1l-4,4.6c-0.3,0.4-0.9,0.4-1.2,0.1
	c-0.4-0.3-0.4-0.9-0.1-1.2l2.7-3.1H7.2c-0.5,0-0.9-0.4-0.9-0.9s0.4-0.9,0.9-0.9h7.2l-2.7-3.1C11.4,7.4,11.4,6.9,11.8,6.6z"/>
<path class="st0" d="M11.9,2.4c-2.5,0-5.8,0.2-7.9,0.4C3.4,2.8,2.8,3.4,2.8,4.1c-0.2,2.1-0.4,5.4-0.4,7.9c0,2.5,0.2,5.8,0.4,7.9
	c0.1,0.7,0.6,1.2,1.3,1.3c2.1,0.2,5.4,0.4,7.9,0.4c2.5,0,5.8-0.2,7.9-0.4c0.7-0.1,1.2-0.6,1.3-1.3c0.2-2.1,0.4-5.4,0.4-7.9
	c0-2.5-0.2-5.8-0.4-7.9c-0.1-0.7-0.6-1.2-1.3-1.3C17.7,2.6,14.4,2.4,11.9,2.4z M3.9,1c2.1-0.2,5.5-0.4,8-0.4c2.5,0,5.9,0.2,8,0.4
	c1.5,0.1,2.8,1.3,2.9,2.9c0.2,2.1,0.4,5.5,0.4,8c0,2.5-0.2,5.9-0.4,8c-0.1,1.5-1.3,2.8-2.9,2.9c-2.1,0.2-5.5,0.4-8,0.4
	c-2.5,0-5.9-0.2-8-0.4C2.4,22.7,1.2,21.5,1,20c-0.2-2.1-0.4-5.5-0.4-8c0-2.5,0.2-5.9,0.4-8C1.2,2.4,2.4,1.2,3.9,1z"/>
</svg>
