<?xml version="1.0" encoding="utf-8"?>
<!-- Generator: Adobe Illustrator 25.4.1, SVG Export Plug-In . SVG Version: 6.00 Build 0)  -->
<svg version="1.1" id="Layer_1" xmlns="http://www.w3.org/2000/svg" xmlns:xlink="http://www.w3.org/1999/xlink" x="0px" y="0px"
	 viewBox="0 0 24 24" style="enable-background:new 0 0 24 24;" xml:space="preserve">
<style type="text/css">
	.st0{fill-rule:evenodd;clip-rule:evenodd;fill:#FFFFFF;}
</style>
<path class="st0" d="M1.7,3.4c0.2-1.6,1.5-2.7,3.1-2.7H19c1.6,0,2.9,1.1,3.1,2.7c0.3,2.1,0.7,5.6,0.9,8.1c0.1,2.5,0.1,5.9,0.1,8.1
	c0,1.6-1.3,2.9-2.9,3c-2.2,0.2-5.7,0.4-8.3,0.4c-2.6,0-6.1-0.2-8.3-0.4c-1.6-0.1-2.8-1.4-2.9-3c0-2.1-0.1-5.5,0.1-8.1
	C1,9,1.4,5.6,1.7,3.4z M4.8,2.5C4.1,2.5,3.5,3,3.4,3.7c-0.3,2.1-0.7,5.5-0.9,8c-0.1,2.5-0.1,5.8-0.1,7.9c0,0.7,0.6,1.3,1.3,1.3
	c2.2,0.2,5.6,0.4,8.1,0.4c2.5,0,6-0.2,8.1-0.4c0.7-0.1,1.3-0.6,1.3-1.3c0-2.1,0.1-5.5-0.1-7.9c-0.1-2.5-0.6-5.9-0.9-8
	C20.3,3,19.7,2.5,19,2.5H4.8z"/>
<path class="st0" d="M7.3,5.3c0.5,0,0.9,0.4,0.9,0.9c0,2.1,1.7,3.7,3.7,3.7c2.1,0,3.7-1.7,3.7-3.7c0-0.5,0.4-0.9,0.9-0.9
	c0.5,0,0.9,0.4,0.9,0.9c0,3-2.4,5.4-5.4,5.4c-3,0-5.4-2.4-5.4-5.4C6.5,5.7,6.8,5.3,7.3,5.3z"/>
</svg>
