<?xml version="1.0" encoding="utf-8"?>
<!-- Generator: Adobe Illustrator 25.4.1, SVG Export Plug-In . SVG Version: 6.00 Build 0)  -->
<svg version="1.1" id="Layer_1" xmlns="http://www.w3.org/2000/svg" xmlns:xlink="http://www.w3.org/1999/xlink" x="0px" y="0px"
	 viewBox="0 0 24 24" style="enable-background:new 0 0 24 24;" xml:space="preserve">
<style type="text/css">
	.st0{fill-rule:evenodd;clip-rule:evenodd;fill:#FFFFFF;}
</style>
<path class="st0" d="M5.6,2.1c-0.9,0-2.1,0.2-2.9,0.4c-0.1,0-0.2,0.1-0.2,0.2c-0.2,0.8-0.4,2-0.4,2.9s0.2,2.1,0.4,2.9
	c0,0.1,0.1,0.2,0.2,0.2c0.8,0.2,2,0.4,2.9,0.4s2.1-0.2,2.9-0.4c0.1,0,0.2-0.1,0.2-0.2C8.8,7.6,9,6.4,9,5.5S8.8,3.4,8.6,2.6
	c0-0.1-0.1-0.2-0.2-0.2C7.6,2.3,6.4,2.1,5.6,2.1z M2.3,0.6c0.8-0.2,2.2-0.4,3.2-0.4S8,0.5,8.8,0.6c0.8,0.2,1.5,0.8,1.6,1.6
	c0.2,0.8,0.4,2.2,0.4,3.2s-0.2,2.4-0.4,3.2c-0.2,0.8-0.8,1.5-1.6,1.6c-0.8,0.2-2.2,0.4-3.2,0.4s-2.4-0.2-3.2-0.4
	c-0.8-0.2-1.5-0.8-1.6-1.6C0.5,7.9,0.3,6.6,0.3,5.5s0.2-2.4,0.4-3.2C0.8,1.4,1.5,0.8,2.3,0.6z"/>
<path class="st0" d="M5.6,15c-0.9,0-2.1,0.2-2.9,0.4c-0.1,0-0.2,0.1-0.2,0.2c-0.2,0.8-0.4,2-0.4,2.9c0,0.9,0.2,2.1,0.4,2.9
	c0,0.1,0.1,0.2,0.2,0.2c0.8,0.2,2,0.4,2.9,0.4s2.1-0.2,2.9-0.4c0.1,0,0.2-0.1,0.2-0.2c0.2-0.8,0.4-2,0.4-2.9c0-0.9-0.2-2.1-0.4-2.9
	c0-0.1-0.1-0.2-0.2-0.2C7.6,15.2,6.4,15,5.6,15z M2.3,13.5c0.8-0.2,2.2-0.4,3.2-0.4s2.4,0.2,3.2,0.4c0.8,0.2,1.5,0.8,1.6,1.6
	c0.2,0.8,0.4,2.2,0.4,3.2c0,1.1-0.2,2.4-0.4,3.2c-0.2,0.8-0.8,1.5-1.6,1.6c-0.8,0.2-2.2,0.4-3.2,0.4s-2.4-0.2-3.2-0.4
	c-0.8-0.2-1.5-0.8-1.6-1.6c-0.2-0.8-0.4-2.2-0.4-3.2c0-1.1,0.2-2.4,0.4-3.2C0.8,14.4,1.5,13.7,2.3,13.5z"/>
<path class="st0" d="M18.5,2.1c-0.9,0-2.1,0.2-2.9,0.4c-0.1,0-0.2,0.1-0.2,0.2c-0.2,0.8-0.4,2-0.4,2.9s0.2,2.1,0.4,2.9
	c0,0.1,0.1,0.2,0.2,0.2c0.8,0.2,2,0.4,2.9,0.4c0.9,0,2.1-0.2,2.9-0.4c0.1,0,0.2-0.1,0.2-0.2c0.2-0.8,0.4-2,0.4-2.9s-0.2-2.1-0.4-2.9
	c0-0.1-0.1-0.2-0.2-0.2C20.6,2.3,19.4,2.1,18.5,2.1z M15.3,0.6c0.8-0.2,2.2-0.4,3.2-0.4s2.4,0.2,3.2,0.4c0.8,0.2,1.5,0.8,1.6,1.6
	c0.2,0.8,0.4,2.2,0.4,3.2s-0.2,2.4-0.4,3.2c-0.2,0.8-0.8,1.5-1.6,1.6c-0.8,0.2-2.2,0.4-3.2,0.4s-2.4-0.2-3.2-0.4
	c-0.8-0.2-1.5-0.8-1.6-1.6c-0.2-0.8-0.4-2.2-0.4-3.2s0.2-2.4,0.4-3.2C13.8,1.4,14.4,0.8,15.3,0.6z"/>
<path class="st0" d="M18.5,15c-0.9,0-2.1,0.2-2.9,0.4c-0.1,0-0.2,0.1-0.2,0.2c-0.2,0.8-0.4,2-0.4,2.9c0,0.9,0.2,2.1,0.4,2.9
	c0,0.1,0.1,0.2,0.2,0.2c0.8,0.2,2,0.4,2.9,0.4c0.9,0,2.1-0.2,2.9-0.4c0.1,0,0.2-0.1,0.2-0.2c0.2-0.8,0.4-2,0.4-2.9
	c0-0.9-0.2-2.1-0.4-2.9c0-0.1-0.1-0.2-0.2-0.2C20.6,15.2,19.4,15,18.5,15z M15.3,13.5c0.8-0.2,2.2-0.4,3.2-0.4s2.4,0.2,3.2,0.4
	c0.8,0.2,1.5,0.8,1.6,1.6c0.2,0.8,0.4,2.2,0.4,3.2c0,1.1-0.2,2.4-0.4,3.2c-0.2,0.8-0.8,1.5-1.6,1.6c-0.8,0.2-2.2,0.4-3.2,0.4
	s-2.4-0.2-3.2-0.4c-0.8-0.2-1.5-0.8-1.6-1.6c-0.2-0.8-0.4-2.2-0.4-3.2c0-1.1,0.2-2.4,0.4-3.2C13.8,14.4,14.4,13.7,15.3,13.5z"/>
</svg>
