<?xml version="1.0" encoding="utf-8"?>
<!-- Generator: Adobe Illustrator 25.4.1, SVG Export Plug-In . SVG Version: 6.00 Build 0)  -->
<svg version="1.1" id="Layer_1" xmlns="http://www.w3.org/2000/svg" xmlns:xlink="http://www.w3.org/1999/xlink" x="0px" y="0px"
	 viewBox="0 0 24 24" style="enable-background:new 0 0 24 24;" xml:space="preserve">
<style type="text/css">
	.st0{fill-rule:evenodd;clip-rule:evenodd;fill:#FFFFFF;}
</style>
<path class="st0" d="M7.6,16.8c0,0.5,0.4,0.9,0.9,0.9h7.2c0.5,0,0.9-0.4,0.9-0.9c0-0.5-0.4-0.9-0.9-0.9H8.4
	C8,15.9,7.6,16.3,7.6,16.8z"/>
<path class="st0" d="M7.6,12c0,0.5,0.4,0.9,0.9,0.9H12c0.5,0,0.9-0.4,0.9-0.9c0-0.5-0.4-0.9-0.9-0.9H8.4C8,11.1,7.6,11.5,7.6,12z"/>
<path class="st0" d="M8.5,1.5c0.4-0.6,1-1,1.8-1h3.5c0.7,0,1.4,0.4,1.8,1l0.7,1.1c0.6,0.1,1.3,0.1,1.8,0.2c1.6,0.1,2.8,1.4,2.9,2.9
	c0.2,2.1,0.4,5.5,0.4,8c0,2.4-0.2,5.1-0.4,6.8c-0.1,1.5-1.3,2.7-2.9,2.9c-1.7,0.2-4.1,0.4-6,0.4s-4.3-0.2-6-0.4
	c-1.5-0.1-2.7-1.3-2.9-2.9C3,18.6,2.8,16,2.8,13.6c0-2.5,0.2-5.9,0.4-8c0.1-1.5,1.3-2.8,2.9-2.9c0.5-0.1,1.1-0.1,1.8-0.2L8.5,1.5z
	 M7.4,4.4C7,4.4,6.6,4.4,6.2,4.5C5.6,4.5,5,5.1,5,5.8c-0.2,2.1-0.4,5.4-0.4,7.8c0,2.3,0.2,4.9,0.4,6.6c0.1,0.7,0.6,1.2,1.3,1.3
	c1.7,0.2,4.1,0.3,5.8,0.3s4.2-0.2,5.8-0.3c0.7-0.1,1.2-0.6,1.3-1.3c0.2-1.7,0.4-4.3,0.4-6.6c0-2.4-0.2-5.7-0.4-7.8
	c-0.1-0.7-0.6-1.2-1.3-1.3c-0.4,0-0.8-0.1-1.2-0.1c0,0.3-0.1,0.5-0.3,0.7c-0.3,0.6-1,1.1-1.8,1.1H9.5C8.7,6.1,8,5.7,7.7,5.1
	C7.6,4.9,7.5,4.6,7.4,4.4z M10.3,2.2c-0.1,0-0.2,0-0.2,0.2L9.3,3.7c0,0,0,0,0,0.1c-0.1,0.1-0.1,0.3,0,0.4c0.1,0.1,0.2,0.2,0.2,0.2
	h5.1c0.1,0,0.2,0,0.2-0.2c0.1-0.1,0.1-0.3,0-0.4c0,0,0,0,0-0.1L14,2.4c-0.1-0.1-0.2-0.2-0.2-0.2H10.3z"/>
</svg>
