<?xml version="1.0" encoding="utf-8"?>
<!-- Generator: Adobe Illustrator 25.4.1, SVG Export Plug-In . SVG Version: 6.00 Build 0)  -->
<svg version="1.1" id="Layer_2_00000082333376096647929160000016393575928005543828_"
	 xmlns="http://www.w3.org/2000/svg" xmlns:xlink="http://www.w3.org/1999/xlink" x="0px" y="0px" viewBox="0 0 1000 1000"
	 style="enable-background:new 0 0 1000 1000;" xml:space="preserve">
<style type="text/css">
	.st0{fill:none;stroke:#FFFFFF;stroke-width:37;stroke-linecap:round;stroke-miterlimit:10;}
</style>
<path class="st0" d="M566.2,939.3h363.5c12,0,21.7-8.6,21.7-19V443.9c0-10.5-9.8-19-21.7-19H566.2c-12,0-21.7,8.6-21.7,19v397.2"/>
<path class="st0" d="M73.7,642.5h369.7c10.3,0,18.6,8.3,18.6,18.6v259.6c0,10.3-8.3,18.6-18.6,18.6H73.7c-10.3,0-18.6-8.3-18.6-18.6
	V661.1C55.1,650.8,63.4,642.5,73.7,642.5z"/>
<path class="st0" d="M440.3,568.7H76.8c-12,0-21.7-8.6-21.7-19V73.2c0-10.4,9.8-19,21.7-19h363.5c12,0,21.7,8.6,21.7,19v397.2"/>
<path class="st0" d="M932.8,351.1H563.1c-10.3,0-18.6-8.3-18.6-18.6V72.8c0-10.3,8.3-18.6,18.6-18.6h369.7
	c10.3,0,18.6,8.3,18.6,18.6v259.6C951.4,342.7,943.1,351.1,932.8,351.1z"/>
</svg>
