<?xml version="1.0" encoding="utf-8"?>
<!-- Generator: Adobe Illustrator 25.4.1, SVG Export Plug-In . SVG Version: 6.00 Build 0)  -->
<svg version="1.1" id="Layer_1" xmlns="http://www.w3.org/2000/svg" xmlns:xlink="http://www.w3.org/1999/xlink" x="0px" y="0px"
	 viewBox="0 0 24 24" style="enable-background:new 0 0 24 24;" xml:space="preserve">
<style type="text/css">
	.st0{fill-rule:evenodd;clip-rule:evenodd;fill:#FFFFFF;}
</style>
<path class="st0" d="M12,9.3c-2.5,0-6,0.2-8.1,0.3c-0.7,0-1.2,0.6-1.3,1.2c-0.2,1.4-0.3,3.2-0.3,4.6s0.2,3.2,0.3,4.6
	c0.1,0.7,0.6,1.2,1.3,1.2c2.1,0.1,5.6,0.3,8.1,0.3c2.5,0,6-0.2,8.1-0.3c0.7,0,1.2-0.6,1.3-1.2c0.2-1.4,0.3-3.2,0.3-4.6
	s-0.2-3.2-0.3-4.6c-0.1-0.7-0.6-1.2-1.3-1.2C18,9.5,14.6,9.3,12,9.3z M3.8,7.9C6,7.8,9.5,7.6,12,7.6c2.6,0,6.1,0.2,8.2,0.3
	c1.5,0.1,2.8,1.3,2.9,2.8c0.2,1.4,0.3,3.3,0.3,4.8s-0.2,3.4-0.3,4.8c-0.2,1.5-1.4,2.7-2.9,2.8c-2.1,0.1-5.6,0.3-8.2,0.3
	c-2.6,0-6.1-0.2-8.2-0.3c-1.5-0.1-2.8-1.3-2.9-2.8c-0.2-1.4-0.3-3.3-0.3-4.8s0.2-3.4,0.3-4.8C1.1,9.2,2.3,8,3.8,7.9z"/>
<path class="st0" d="M12,5.8c-1.8,0-4.3,0.1-6,0.2C5.4,6,4.9,6.4,4.8,7C4.7,7.5,4.7,8,4.7,8.4c0,0.5-0.4,0.9-0.9,0.9
	c-0.5,0-0.9-0.4-0.9-0.9c0-0.5,0.1-1.1,0.1-1.6C3.3,5.3,4.6,4.2,6,4.2C7.7,4.1,10.2,4,12,4s4.4,0.1,6,0.2c1.5,0.1,2.7,1.1,2.9,2.6
	c0.1,0.5,0.1,1.1,0.1,1.6c0,0.5-0.4,0.9-0.9,0.9c-0.5,0-0.9-0.4-0.9-0.9c0-0.4,0-0.9-0.1-1.4C19.2,6.4,18.7,6,18,5.9
	C16.3,5.9,13.9,5.8,12,5.8z"/>
<path class="st0" d="M12,2.3c-1.1,0-2.5,0.1-3.6,0.1c-0.7,0-1.2,0.5-1.3,1.2C7.1,4,7,4.5,7,4.9c0,0.5-0.4,0.9-0.9,0.9
	c-0.5,0-0.9-0.4-0.9-0.9c0-0.5,0-1,0.1-1.5c0.1-1.6,1.4-2.7,2.9-2.8c1.1-0.1,2.6-0.1,3.7-0.1s2.6,0.1,3.7,0.1
	c1.5,0.1,2.8,1.2,2.9,2.8c0,0.5,0.1,1,0.1,1.5c0,0.5-0.4,0.9-0.9,0.9c-0.5,0-0.9-0.4-0.9-0.9C17,4.5,17,4,17,3.6
	c-0.1-0.6-0.6-1.1-1.3-1.2C14.6,2.3,13.1,2.3,12,2.3z"/>
<path class="st0" d="M8.8,15.5c0-0.5,0.4-0.9,0.9-0.9h4.7c0.5,0,0.9,0.4,0.9,0.9c0,0.5-0.4,0.9-0.9,0.9H9.7
	C9.2,16.4,8.8,16,8.8,15.5z"/>
<path class="st0" d="M12,18.7c-0.5,0-0.9-0.4-0.9-0.9v-4.7c0-0.5,0.4-0.9,0.9-0.9c0.5,0,0.9,0.4,0.9,0.9v4.7
	C12.9,18.3,12.5,18.7,12,18.7z"/>
</svg>
