<?xml version="1.0" encoding="utf-8"?>
<!-- Generator: Adobe Illustrator 25.4.1, SVG Export Plug-In . SVG Version: 6.00 Build 0)  -->
<svg version="1.1" id="Layer_1" xmlns="http://www.w3.org/2000/svg" xmlns:xlink="http://www.w3.org/1999/xlink" x="0px" y="0px"
	 viewBox="0 0 24 24" style="enable-background:new 0 0 24 24;" xml:space="preserve">
<style type="text/css">
	.st0{fill-rule:evenodd;clip-rule:evenodd;fill:#0F8282;}
</style>
<path class="st0" d="M15.4,2.9c1.2-1.2,3.2-1.2,4.4,0l1.3,1.3c1.2,1.2,1.2,3.2,0,4.4L8.6,21.1C8.1,21.7,7.3,22,6.4,22H2.8
	C2.4,22,2,21.6,2,21.2v-3.6c0-0.8,0.3-1.6,0.9-2.2L15.4,2.9z M18.6,4.1c-0.6-0.6-1.4-0.6-2,0l-2.3,2.3l3.3,3.3l2.3-2.3
	c0.6-0.6,0.6-1.4,0-2L18.6,4.1z M16.4,11L13,7.6l-8.9,8.9c-0.3,0.3-0.4,0.6-0.4,1v2.7h2.7c0.4,0,0.7-0.1,1-0.4L16.4,11z"/>
</svg>
