<?xml version="1.0" encoding="utf-8"?>
<!-- Generator: Adobe Illustrator 25.4.1, SVG Export Plug-In . SVG Version: 6.00 Build 0)  -->
<svg version="1.1" id="Layer_1" xmlns="http://www.w3.org/2000/svg" xmlns:xlink="http://www.w3.org/1999/xlink" x="0px" y="0px"
	 viewBox="0 0 24 24" style="enable-background:new 0 0 24 24;" xml:space="preserve">
<style type="text/css">
	.st0{fill-rule:evenodd;clip-rule:evenodd;fill:#FFFFFF;}
</style>
<path class="st0" d="M14.6,6C14.6,6,14.6,6,14.6,6C15.8,6.1,17,6.5,18,7.2c1.3,0.9,2.3,2.1,2.9,3.5c0.6,1.4,0.7,3,0.4,4.5
	c-0.3,1.5-1,2.9-2.1,4c-1.1,1.1-2.5,1.8-4,2.1c-1.5,0.3-3.1,0.1-4.5-0.4c-1.4-0.6-2.6-1.6-3.5-2.9c-0.7-1-1.1-2.1-1.2-3.3
	c0,0,0-0.1,0-0.1c0,0,0.1-0.1,0.2-0.1h6.3c1.1,0,2-0.9,2-2l0-6.3C14.5,6.1,14.5,6,14.6,6z M14.9,4.3c-1.2-0.2-2.1,0.9-2.1,1.9v6.3
	c0,0.2-0.1,0.3-0.3,0.3H6.2c-1.1,0-2.1,0.9-1.9,2.1c0.2,1.4,0.7,2.8,1.5,4c1,1.6,2.5,2.8,4.3,3.5c1.7,0.7,3.6,0.9,5.5,0.5
	c1.8-0.4,3.5-1.3,4.9-2.6c1.3-1.3,2.2-3,2.6-4.9c0.4-1.8,0.2-3.7-0.5-5.5c-0.7-1.7-1.9-3.2-3.5-4.3C17.7,5,16.3,4.4,14.9,4.3z"/>
<path class="st0" d="M2.5,8.7C2.5,8.6,2.5,8.6,2.5,8.7c0.2-1.6,0.9-3,2-4.1c1.1-1.1,2.5-1.8,4.1-2c0,0,0,0,0,0c0,0,0,0,0,0
	c0,0,0.1,0.1,0.1,0.2v5.7c0,0.2-0.1,0.3-0.3,0.3H2.7C2.7,8.8,2.6,8.7,2.5,8.7C2.5,8.7,2.5,8.7,2.5,8.7z M0.8,8.4
	c-0.2,1.2,0.8,2.1,1.9,2.1h5.7c1.1,0,2-0.9,2-2V2.7c0-1.1-0.9-2.1-2.1-1.9C6.5,1.1,4.7,2,3.3,3.3C2,4.7,1.1,6.5,0.8,8.4z"/>
</svg>
