<?xml version="1.0" encoding="utf-8"?>
<!-- Generator: Adobe Illustrator 25.4.1, SVG Export Plug-In . SVG Version: 6.00 Build 0)  -->
<svg version="1.1" id="Layer_2_00000002345966553103499360000016968288580842176401_"
	 xmlns="http://www.w3.org/2000/svg" xmlns:xlink="http://www.w3.org/1999/xlink" x="0px" y="0px" viewBox="0 0 100 100"
	 style="enable-background:new 0 0 100 100;" xml:space="preserve">
<style type="text/css">
	.st0{fill:none;stroke:#FFFFFF;stroke-width:6;stroke-linecap:round;stroke-linejoin:round;}
</style>
<path class="st0" d="M63.6,54c0,9.3-7.5,16.9-16.8,16.9c-9.3,0-16.9-7.5-16.9-16.8c0-9.3,7.5-16.9,16.8-16.9c0,0,0,0,0,0"/>
<polygon class="st0" points="63.6,42.9 57.2,53.2 70.1,53.2 "/>
<path class="st0" d="M86.1,21.9l-8,64.2H31.3c0-0.2,0-0.5,0-0.7c0-4.8-3.9-8.7-8.7-8.7c-0.6,0-1.2,0.1-1.8,0.2l-6.9-55L86.1,21.9z"
	/>
<line class="st0" x1="13.9" y1="21.9" x2="86.1" y2="5.9"/>
<line class="st0" x1="78.1" y1="86.1" x2="78.1" y2="94.1"/>
<path class="st0" d="M31.3,85.4c0,0.2,0,0.5,0,0.7c-0.2,4.8-4.2,8.5-9,8.3s-8.5-4.2-8.3-9c0.2-4.8,4.2-8.5,9-8.3
	C27.5,77.3,31.1,80.9,31.3,85.4z"/>
</svg>
