<?xml version="1.0" encoding="utf-8"?>
<!-- Generator: Adobe Illustrator 25.4.1, SVG Export Plug-In . SVG Version: 6.00 Build 0)  -->
<svg version="1.1" id="Layer_1" xmlns="http://www.w3.org/2000/svg" xmlns:xlink="http://www.w3.org/1999/xlink" x="0px" y="0px"
	 viewBox="0 0 24 24" style="enable-background:new 0 0 24 24;" xml:space="preserve">
<style type="text/css">
	.st0{fill-rule:evenodd;clip-rule:evenodd;fill:#FFFFFF;}
</style>
<path class="st0" d="M12,4.2c-1.5,0-2.7,1.2-2.7,2.7c0,1.5,1.2,2.7,2.7,2.7s2.7-1.2,2.7-2.7C14.7,5.4,13.5,4.2,12,4.2z M7.5,6.9
	c0-2.5,2-4.5,4.5-4.5c2.5,0,4.5,2,4.5,4.5c0,2.5-2,4.5-4.5,4.5C9.5,11.4,7.5,9.4,7.5,6.9z"/>
<path class="st0" d="M10.2,15c-1.8,0-3.3,1.5-3.3,3.3c0,0,0,0.1,0,0.1c0,0,0,0,0,0c0.5,0.3,1.8,0.8,5.1,0.8c3.2,0,4.6-0.5,5.1-0.8
	c0,0,0,0,0,0c0,0,0-0.1,0-0.1c0-1.8-1.5-3.3-3.3-3.3H10.2z M5.2,18.3c0-2.8,2.3-5.1,5.1-5.1h3.5c2.8,0,5.1,2.3,5.1,5.1
	c0,0.5-0.2,1.2-0.8,1.6c-0.8,0.5-2.5,1.1-6,1.1c-3.5,0-5.2-0.6-6-1.1C5.3,19.5,5.2,18.8,5.2,18.3z"/>
<path class="st0" d="M17.4,4.2c0.1-0.5,0.6-0.8,1.1-0.6c1.6,0.4,2.7,2.1,2.7,3.9c0,1.9-1.3,3.7-3.2,3.9c-0.5,0.1-0.9-0.3-1-0.8
	c-0.1-0.5,0.3-0.9,0.8-1c0.8-0.1,1.6-0.9,1.6-2.1c0-1.1-0.7-1.9-1.4-2.1C17.5,5.2,17.3,4.7,17.4,4.2z"/>
<path class="st0" d="M19.5,13.9c0.1-0.5,0.6-0.8,1-0.7c1.8,0.4,3.1,1.9,3.1,3.8v0.5c0,0.5-0.1,1.2-0.8,1.6c-0.4,0.3-1,0.5-1.9,0.7
	c-0.5,0.1-1-0.2-1.1-0.7c-0.1-0.5,0.2-1,0.7-1.1c0.7-0.1,1.1-0.3,1.3-0.4l0,0c0,0,0-0.1,0-0.1V17c0-1-0.7-1.8-1.7-2
	C19.7,14.8,19.4,14.4,19.5,13.9z"/>
<path class="st0" d="M6.6,10.7c-0.1,0.5-0.6,0.8-1.1,0.6c-1.6-0.4-2.7-2.1-2.7-3.9c0-1.9,1.3-3.7,3.2-3.9c0.5-0.1,0.9,0.3,1,0.8
	c0.1,0.5-0.3,0.9-0.8,1C5.3,5.5,4.6,6.3,4.6,7.5c0,1.1,0.7,1.9,1.4,2.1C6.5,9.7,6.7,10.2,6.6,10.7z"/>
<path class="st0" d="M4.5,13.9c-0.1-0.5-0.6-0.8-1-0.7c-1.8,0.4-3.1,1.9-3.1,3.8v0.5c0,0.5,0.1,1.2,0.8,1.6c0.4,0.3,1,0.5,1.9,0.7
	c0.5,0.1,1-0.2,1.1-0.7c0.1-0.5-0.2-1-0.7-1.1c-0.7-0.1-1.1-0.3-1.3-0.4l0,0c0,0,0-0.1,0-0.1V17c0-1,0.7-1.8,1.7-2
	C4.3,14.8,4.6,14.4,4.5,13.9z"/>
</svg>
