<?xml version="1.0" encoding="utf-8"?>
<!-- Generator: Adobe Illustrator 25.4.1, SVG Export Plug-In . SVG Version: 6.00 Build 0)  -->
<svg version="1.1" id="Layer_1" xmlns="http://www.w3.org/2000/svg" xmlns:xlink="http://www.w3.org/1999/xlink" x="0px" y="0px"
	 viewBox="0 0 24 24" style="enable-background:new 0 0 24 24;" xml:space="preserve">
<style type="text/css">
	.st0{fill:#FFFFFF;stroke:#000000;stroke-width:2;stroke-linecap:round;stroke-linejoin:round;}
</style>
<path class="st0" d="M20.9,22.1v-2.2c0-2.5-2-4.5-4.5-4.5h-1.1c-0.6,0-1.1-0.5-1.1-1.1V8.6c0-1.2-1-2.2-2.2-2.2l0,0
	c-1.2,0-2.2,1-2.2,2.2v10.1l-2.7-3.6c-0.4-0.6-1.1-0.9-1.8-0.9H4.8c-1,0-1.8,0.8-1.8,1.8l0,0c0,0.3,0.1,0.6,0.2,0.9l3.1,5.2 M12,3.1
	V1.9 M18.7,9.8h1.1 M4.2,9.8h1.1 M6.8,4.6L6,3.8 M17.2,4.6L18,3.8"/>
</svg>
