<?xml version="1.0" encoding="utf-8"?>
<!-- Generator: Adobe Illustrator 25.4.1, SVG Export Plug-In . SVG Version: 6.00 Build 0)  -->
<svg version="1.1" id="Layer_1" xmlns="http://www.w3.org/2000/svg" xmlns:xlink="http://www.w3.org/1999/xlink" x="0px" y="0px"
	 viewBox="0 0 24 24" style="enable-background:new 0 0 24 24;" xml:space="preserve">
<style type="text/css">
	.st0{fill-rule:evenodd;clip-rule:evenodd;fill:#D1D100;}
	.st1{fill:#D1D100;}
</style>
<path class="st0" d="M12,2.4c-5.3,0-9.6,4.3-9.6,9.6c0,5.3,4.3,9.6,9.6,9.6c5.3,0,9.6-4.3,9.6-9.6C21.6,6.7,17.3,2.4,12,2.4z
	 M0.6,12C0.6,5.7,5.7,0.6,12,0.6c6.3,0,11.4,5.1,11.4,11.4c0,6.3-5.1,11.4-11.4,11.4C5.7,23.4,0.6,18.3,0.6,12z"/>
<path class="st0" d="M12,17c0.5,0,0.9-0.4,0.9-0.9v-4.7c0-0.5-0.4-0.9-0.9-0.9s-0.9,0.4-0.9,0.9v4.7C11.1,16.6,11.5,17,12,17z"/>
<path class="st1" d="M13.2,7.9c0-0.6-0.5-1.2-1.2-1.2s-1.2,0.5-1.2,1.2c0,0.6,0.5,1.2,1.2,1.2S13.2,8.6,13.2,7.9z"/>
</svg>
