<?xml version="1.0" encoding="utf-8"?>
<!-- Generator: Adobe Illustrator 25.4.1, SVG Export Plug-In . SVG Version: 6.00 Build 0)  -->
<svg version="1.1" id="Layer_1" xmlns="http://www.w3.org/2000/svg" xmlns:xlink="http://www.w3.org/1999/xlink" x="0px" y="0px"
	 viewBox="0 0 24 24" style="enable-background:new 0 0 24 24;" xml:space="preserve">
<style type="text/css">
	.st0{fill:#FFFFFF;}
	.st1{fill-rule:evenodd;clip-rule:evenodd;fill:#FFFFFF;}
</style>
<path class="st0" d="M16.7,8.4c0,0.6-0.5,1.1-1.1,1.1c-0.6,0-1.1-0.5-1.1-1.1s0.5-1.1,1.1-1.1C16.2,7.3,16.7,7.8,16.7,8.4z"/>
<path class="st1" d="M9.4,2.9c3.2-3.2,8.5-3.2,11.7,0c3.2,3.2,3.2,8.4,0,11.5c-2.1,2.2-5.1,2.9-7.9,2.2c-0.2-0.1-0.4,0-0.6,0.2
	l-6.1,6.1c-0.2,0.2-0.4,0.3-0.6,0.3H1.7c-0.5,0-0.9-0.4-0.9-0.9v-4.2c0-0.2,0.1-0.5,0.3-0.6l6.1-6.1c0,0,0.1-0.1,0.1-0.2
	c0-0.1,0-0.2,0-0.4C6.5,8.1,7.3,5.1,9.4,2.9z M19.9,4.1c-2.5-2.5-6.7-2.5-9.2,0c-1.7,1.7-2.3,4.1-1.7,6.2l0,0
	c0.2,0.6,0.2,1.5-0.5,2.3l-5.9,5.9v2.9h2.9l5.9-5.9c0.6-0.6,1.5-0.8,2.3-0.6l0,0c2.2,0.6,4.6,0,6.2-1.7c0,0,0,0,0,0
	C22.4,10.8,22.4,6.7,19.9,4.1z"/>
</svg>
