<?xml version="1.0" encoding="utf-8"?>
<!-- Generator: Adobe Illustrator 25.4.1, SVG Export Plug-In . SVG Version: 6.00 Build 0)  -->
<svg version="1.1" id="Layer_1" xmlns="http://www.w3.org/2000/svg" xmlns:xlink="http://www.w3.org/1999/xlink" x="0px" y="0px"
	 viewBox="0 0 24 24" style="enable-background:new 0 0 24 24;" xml:space="preserve">
<style type="text/css">
	.st0{fill-rule:evenodd;clip-rule:evenodd;fill:#FFFFFF;}
	.st1{fill:#FFFFFF;}
</style>
<path class="st0" d="M12.6,2c0.6-0.6,1.3-0.9,2.2-0.9h4.5c0.5,0,1,0.2,1.4,0.6l1.7,1.7c0.4,0.4,0.6,0.9,0.6,1.4v4.5
	c0,0.8-0.3,1.6-0.9,2.2L11.4,22c-1.2,1.2-3.1,1.2-4.3,0l-5-5c-1.2-1.2-1.2-3.1,0-4.3L12.6,2z M14.8,2.8c-0.4,0-0.7,0.1-1,0.4
	L3.2,13.8c-0.5,0.5-0.5,1.4,0,2l5,5c0.5,0.5,1.4,0.5,2,0l10.6-10.6c0.3-0.3,0.4-0.6,0.4-1V4.7c0-0.1,0-0.1-0.1-0.2l-1.7-1.7
	c-0.1-0.1-0.1-0.1-0.2-0.1H14.8z"/>
<path class="st1" d="M17.6,7.5c0,0.6-0.5,1.1-1.1,1.1c-0.6,0-1.1-0.5-1.1-1.1s0.5-1.1,1.1-1.1C17.1,6.4,17.6,6.9,17.6,7.5z"/>
</svg>
