<?xml version="1.0" encoding="utf-8"?>
<!-- Generator: Adobe Illustrator 25.4.1, SVG Export Plug-In . SVG Version: 6.00 Build 0)  -->
<svg version="1.1" id="Layer_1" xmlns="http://www.w3.org/2000/svg" xmlns:xlink="http://www.w3.org/1999/xlink" x="0px" y="0px"
	 viewBox="0 0 24 24" style="enable-background:new 0 0 24 24;" xml:space="preserve">
<style type="text/css">
	.st0{fill:#FFFFFF;}
	.st1{fill-rule:evenodd;clip-rule:evenodd;fill:#FFFFFF;}
</style>
<path class="st0" d="M9,17.8C9,18.5,8.5,19,7.8,19s-1.2-0.5-1.2-1.2c0-0.6,0.5-1.2,1.2-1.2S9,17.2,9,17.8z"/>
<path class="st1" d="M4.4,2.4C3.6,2.4,2.9,3,2.9,3.8V18c0,0.4,0.2,0.8,0.5,1.1l2.4,2.2c0.3,0.2,0.6,0.4,1,0.4h2.1
	c0.4,0,0.7-0.1,1-0.4l2.9-2.6V3.8c0-0.8-0.6-1.5-1.5-1.5H4.4z M14.5,16.9l6.2-6.2c0.6-0.6,0.6-1.5,0-2.1l-5.3-5.4
	C15.1,3,14.7,3,14.4,3.1c0,0.2,0.1,0.5,0.1,0.7V16.9z M13.6,1.6c-0.6-0.6-1.4-1-2.3-1h-7C2.6,0.6,1.2,2,1.2,3.8V18
	c0,0.9,0.4,1.8,1.1,2.4l2.4,2.2c0.6,0.5,1.3,0.8,2.1,0.8h2.1c0.8,0,1.5-0.3,2.1-0.8l3.2-2.9c0,0,0,0,0,0l7.6-7.7
	c1.2-1.3,1.2-3.3,0-4.5L16.6,2C15.8,1.2,14.6,1.1,13.6,1.6z"/>
</svg>
