<?xml version="1.0" encoding="utf-8"?>
<!-- Generator: Adobe Illustrator 25.4.1, SVG Export Plug-In . SVG Version: 6.00 Build 0)  -->
<svg version="1.1" id="Layer_1" xmlns="http://www.w3.org/2000/svg" xmlns:xlink="http://www.w3.org/1999/xlink" x="0px" y="0px"
	 viewBox="0 0 24 24" style="enable-background:new 0 0 24 24;" xml:space="preserve">
<style type="text/css">
	.st0{fill-rule:evenodd;clip-rule:evenodd;fill:#FFFFFF;}
</style>
<path class="st0" d="M12.1,18.4c-0.3,0.3-0.9,0.3-1.3,0l-3-2.9c-0.3-0.3-0.3-0.9,0-1.2c0.3-0.3,0.9-0.3,1.3,0l1.4,1.4v-3.7
	c0-0.5,0.4-0.9,0.9-0.9c0.5,0,0.9,0.4,0.9,0.9v3.7l1.4-1.4c0.3-0.3,0.9-0.3,1.3,0c0.3,0.3,0.3,0.9,0,1.2L12.1,18.4z"/>
<path class="st0" d="M12.1,2.2c-1.7,0-4.1,0.2-5.7,0.4C5.7,2.6,5.2,3.1,5.1,3.8c-0.2,2.1-0.4,5.5-0.4,8.1c0,2.5,0.2,5.9,0.4,8.1
	c0.1,0.7,0.6,1.2,1.3,1.3c1.6,0.2,4,0.4,5.7,0.4s4.1-0.2,5.7-0.4c0.7-0.1,1.2-0.6,1.3-1.3c0.2-2.1,0.4-5.5,0.4-8.1
	c0-0.8,0-1.7-0.1-2.6h-3.8l0-0.9V7.5h3.7c-0.2-2.8-2.4-5-5.2-5.2V6c0,0.8,0.7,1.5,1.5,1.5v0.9l0,0.9c-1.8,0-3.3-1.4-3.3-3.2V2.2
	C12.3,2.2,12.2,2.2,12.1,2.2z M13.3,0.4c-0.4,0-0.8,0-1.2,0c-1.8,0-4.3,0.2-5.9,0.4C4.7,0.9,3.5,2.2,3.3,3.7
	c-0.2,2.1-0.4,5.6-0.4,8.2c0,2.6,0.2,6.1,0.4,8.2c0.1,1.5,1.3,2.8,2.9,2.9c1.6,0.2,4.1,0.4,5.9,0.4s4.3-0.2,5.9-0.4
	c1.5-0.1,2.7-1.4,2.9-2.9c0.2-2.1,0.4-5.6,0.4-8.2c0-1.1,0-2.3-0.1-3.6c0,0,0,0,0,0c0-0.3,0-0.5,0-0.8c-0.2-3.8-3.2-6.8-7-7
	C13.9,0.5,13.6,0.5,13.3,0.4"/>
</svg>
