<?xml version="1.0" encoding="utf-8"?>
<!-- Generator: Adobe Illustrator 25.4.1, SVG Export Plug-In . SVG Version: 6.00 Build 0)  -->
<svg version="1.1" id="Layer_1" xmlns="http://www.w3.org/2000/svg" xmlns:xlink="http://www.w3.org/1999/xlink" x="0px" y="0px"
	 viewBox="0 0 24 24" style="enable-background:new 0 0 24 24;" xml:space="preserve">
<style type="text/css">
	.st0{fill-rule:evenodd;clip-rule:evenodd;fill:#FFFFFF;}
</style>
<path class="st0" d="M11.4,2.6c-4.9,0-8.8,3.9-8.8,8.8c0,4.9,3.9,8.8,8.8,8.8c2.4,0,4.6-1,6.2-2.6c1.6-1.6,2.6-3.8,2.6-6.2
	C20.2,6.6,16.3,2.6,11.4,2.6z M0.9,11.4c0-5.8,4.7-10.5,10.5-10.5c5.8,0,10.5,4.7,10.5,10.5c0,2.6-0.9,5-2.5,6.8l3.4,3.4
	c0.3,0.3,0.3,0.9,0,1.2c-0.3,0.3-0.9,0.3-1.2,0l-3.4-3.4c-1.8,1.5-4.2,2.5-6.8,2.5C5.6,21.9,0.9,17.2,0.9,11.4z"/>
</svg>
