<?xml version="1.0" encoding="utf-8"?>
<!-- Generator: Adobe Illustrator 25.4.1, SVG Export Plug-In . SVG Version: 6.00 Build 0)  -->
<svg version="1.1" id="Layer_1" xmlns="http://www.w3.org/2000/svg" xmlns:xlink="http://www.w3.org/1999/xlink" x="0px" y="0px"
	 viewBox="0 0 24 24" style="enable-background:new 0 0 24 24;" xml:space="preserve">
<style type="text/css">
	.st0{fill-rule:evenodd;clip-rule:evenodd;fill:#FFFFFF;}
</style>
<path class="st0" d="M1.2,10.1l3.8-6.8c0.7-1.3,2-2,3.4-2h7.4c1.4,0,2.7,0.8,3.4,2l3.8,6.8c0.7,1.2,0.7,2.7,0,3.9l-3.8,6.8
	c-0.7,1.3-2,2-3.4,2H8.3c-1.4,0-2.7-0.8-3.4-2L1.2,14C0.5,12.8,0.5,11.3,1.2,10.1z M2.6,10.9l3.8-6.8c0.4-0.7,1.1-1.2,1.9-1.2h7.4
	c0.8,0,1.5,0.4,1.9,1.2l3.8,6.8c0.4,0.7,0.4,1.5,0,2.2L17.7,20c-0.4,0.7-1.1,1.2-1.9,1.2H8.3c-0.8,0-1.5-0.4-1.9-1.2l-3.8-6.8
	C2.2,12.5,2.2,11.6,2.6,10.9z"/>
<path class="st0" d="M12,9.5c-1.4,0-2.5,1.1-2.5,2.6s1.1,2.6,2.5,2.6s2.5-1.1,2.5-2.6S13.4,9.5,12,9.5z M7.9,12
	c0-2.4,1.9-4.3,4.2-4.3s4.2,1.9,4.2,4.3c0,2.4-1.9,4.3-4.2,4.3S7.9,14.4,7.9,12z"/>
</svg>
