<?xml version="1.0" encoding="utf-8"?>
<!-- Generator: Adobe Illustrator 25.4.1, SVG Export Plug-In . SVG Version: 6.00 Build 0)  -->
<svg version="1.1" id="Layer_1" xmlns="http://www.w3.org/2000/svg" xmlns:xlink="http://www.w3.org/1999/xlink" x="0px" y="0px"
	 viewBox="0 0 24 24" style="enable-background:new 0 0 24 24;" xml:space="preserve">
<style type="text/css">
	.st0{fill:none;stroke:#FFFFFF;stroke-width:1.5;stroke-linecap:round;stroke-linejoin:round;}
	
		.st1{opacity:0.4;fill:none;stroke:#494949;stroke-width:1.5;stroke-linecap:round;stroke-linejoin:round;enable-background:new    ;}
</style>
<path class="st0" d="M1.2,5.4c0-3.2,0-4.2,4.2-4.2s4.2,1.1,4.2,4.2s0,4.2-4.2,4.2C1.1,9.6,1.2,8.5,1.2,5.4z"/>
<path class="st1" d="M14.4,5.4c0-3.2,0-4.2,4.2-4.2s4.2,1.1,4.2,4.2s0,4.2-4.2,4.2S14.4,8.5,14.4,5.4z"/>
<path class="st0" d="M1.2,18.6c0-3.2,0-4.2,4.2-4.2s4.2,1.1,4.2,4.2s0,4.2-4.2,4.2C1.1,22.8,1.2,21.8,1.2,18.6z"/>
<path class="st0" d="M14.4,18.6c0-3.2,0-4.2,4.2-4.2s4.2,1.1,4.2,4.2s0,4.2-4.2,4.2S14.4,21.8,14.4,18.6z"/>
</svg>
