<?xml version="1.0" encoding="utf-8"?>
<!-- Generator: Adobe Illustrator 25.4.1, SVG Export Plug-In . SVG Version: 6.00 Build 0)  -->
<svg version="1.1" id="Layer_1" xmlns="http://www.w3.org/2000/svg" xmlns:xlink="http://www.w3.org/1999/xlink" x="0px" y="0px"
	 viewBox="0 0 24 24" style="enable-background:new 0 0 24 24;" xml:space="preserve">
<style type="text/css">
	.st0{fill-rule:evenodd;clip-rule:evenodd;fill:#930000;}
</style>
<path class="st0" d="M4.9,7.5c0.5,0,0.9,0.4,0.9,0.9l-0.9,0L4,8.3C4,7.8,4.4,7.4,4.9,7.5z M4.9,8.4C4,8.3,4,8.3,4,8.3l0,0.1l0,0.1
	c0,0.1,0,0.3,0,0.5c0,0.5,0,1.1,0,1.8c0,1.5,0,3.3,0,4.7c0.1,1.6,0.2,3.6,0.4,5.1c0.2,1.7,1.6,3,3.3,3h9c1.7,0,3.2-1.3,3.3-3
	c0.1-1.5,0.3-3.6,0.4-5.1c0.1-1.4,0.1-3.3,0-4.7c0-0.7,0-1.4,0-1.8c0-0.2,0-0.4,0-0.5l0-0.1l0-0.1c0-0.5-0.4-0.9-0.9-0.9
	c-0.5,0-0.9,0.4-0.9,0.9l0.6,0c-0.6,0-0.6,0-0.6,0l0,0l0,0.1c0,0.1,0,0.3,0,0.5c0,0.5,0,1.1,0,1.8c0,1.5,0,3.3,0,4.7
	c-0.1,1.5-0.2,3.5-0.4,5c-0.1,0.8-0.7,1.4-1.5,1.4h-9c-0.8,0-1.4-0.6-1.5-1.4c-0.1-1.5-0.3-3.5-0.4-5c-0.1-1.4-0.1-3.2,0-4.7
	c0-0.7,0-1.4,0-1.8c0-0.2,0-0.4,0-0.5l0-0.1l0,0L4.9,8.4z"/>
<path class="st0" d="M2.7,4.7c0-0.5,0.4-0.9,0.9-0.9h17.1c0.5,0,0.9,0.4,0.9,0.9c0,0.5-0.4,0.9-0.9,0.9H3.6C3.1,5.6,2.7,5.2,2.7,4.7
	z"/>
<path class="st0" d="M7.7,2c0.6-1.1,1.7-1.8,3-1.8h2.9c1.2,0,2.4,0.7,3,1.8l1.3,2.4c0.2,0.4,0.1,1-0.4,1.2c-0.4,0.2-1,0.1-1.2-0.4
	L15,2.8C14.7,2.3,14.2,2,13.6,2h-2.9c-0.6,0-1.1,0.3-1.3,0.8L8.1,5.2C7.8,5.6,7.3,5.8,6.8,5.5C6.4,5.3,6.2,4.7,6.5,4.3L7.7,2z"/>
</svg>
