<?xml version="1.0" encoding="utf-8"?>
<!-- Generator: Adobe Illustrator 25.4.1, SVG Export Plug-In . SVG Version: 6.00 Build 0)  -->
<svg version="1.1" id="Layer_1" xmlns="http://www.w3.org/2000/svg" xmlns:xlink="http://www.w3.org/1999/xlink" x="0px" y="0px"
	 viewBox="0 0 24 24" style="enable-background:new 0 0 24 24;" xml:space="preserve">
<style type="text/css">
	.st0{fill-rule:evenodd;clip-rule:evenodd;fill:#069696;}
</style>
<path class="st0" d="M9.1,2.6c-2,0-3.6,1.6-3.6,3.6s1.6,3.6,3.6,3.6s3.6-1.6,3.6-3.6C12.6,4.2,11,2.6,9.1,2.6z M3.8,6.1
	c0-2.9,2.4-5.3,5.3-5.3s5.3,2.4,5.3,5.3s-2.4,5.3-5.3,5.3C6.1,11.4,3.8,9,3.8,6.1z"/>
<path class="st0" d="M6.9,15.8c-2.4,0-4.3,1.9-4.3,4.3c0,0.1,0,0.2,0,0.2l0,0c0.6,0.3,2.3,1,6.4,1s5.8-0.7,6.4-1l0,0
	c0,0,0-0.1,0-0.2c0-2.4-1.9-4.3-4.3-4.3H6.9z M0.9,20.1c0-3.3,2.7-6,6-6h4.4c3.3,0,6,2.7,6,6c0,0.6-0.2,1.3-0.9,1.8
	c-1,0.6-3,1.3-7.3,1.3s-6.3-0.7-7.3-1.3C1,21.5,0.9,20.7,0.9,20.1z"/>
<path class="st0" d="M16,3c0.1-0.5,0.6-0.7,1.1-0.6c1.9,0.5,3.2,2.4,3.2,4.5c0,2.2-1.5,4.3-3.7,4.5c-0.5,0.1-0.9-0.3-1-0.7
	c-0.1-0.5,0.3-0.9,0.7-1c1.2-0.1,2.2-1.3,2.2-2.8s-0.9-2.6-1.9-2.8C16.1,3.9,15.8,3.4,16,3z"/>
<path class="st0" d="M18.5,14.8c0.1-0.5,0.5-0.8,1-0.7c2.1,0.4,3.6,2.3,3.6,4.4v0.6c0,0.5-0.2,1.3-0.8,1.7c-0.5,0.3-1.2,0.6-2.3,0.8
	c-0.5,0.1-0.9-0.2-1-0.7s0.2-0.9,0.7-1c0.9-0.2,1.5-0.4,1.7-0.6l0,0l0,0c0,0,0-0.1,0-0.2v-0.6c0-1.3-0.9-2.5-2.2-2.7
	C18.7,15.7,18.4,15.2,18.5,14.8z"/>
</svg>
