<?xml version="1.0" encoding="utf-8"?>
<!-- Generator: Adobe Illustrator 25.4.1, SVG Export Plug-In . SVG Version: 6.00 Build 0)  -->
<svg version="1.1" id="Capa_1" xmlns="http://www.w3.org/2000/svg" xmlns:xlink="http://www.w3.org/1999/xlink" x="0px" y="0px"
	 viewBox="0 0 510.1 510.1" style="enable-background:new 0 0 510.1 510.1;" xml:space="preserve">
<style type="text/css">
	.st0{fill:#707070;}
</style>
<g>
	<path class="st0" d="M416.9,242.9c-53.5-51.9-122.1-81.3-193.9-83.2V63c0-3-1.8-5.7-4.5-6.9c-2.7-1.2-5.9-0.7-8.1,1.4l-208,192
		C0.9,250.9,0,252.9,0,255c0,2.1,0.9,4.1,2.4,5.5l208,192c1.4,1.3,3.2,2,5.1,2c1,0,2-0.2,3-0.6c2.7-1.2,4.5-3.9,4.5-6.9v-96.5h28.5
		c101.7,0,188.9,33.9,245.6,95.6c2.2,2.4,5.6,3.1,8.5,1.8c2.9-1.3,4.7-4.3,4.5-7.4C504.4,365.9,471.3,295.7,416.9,242.9z
		 M251.5,335.5h-36c-4.1,0-7.5,3.4-7.5,7.5v86.9L18.6,255L208,80.2V167c0,4.1,3.4,7.5,7.5,7.5c70.6,0,138.4,28.1,191,79.1
		c46.6,45.3,76.8,103.9,86.3,166.9C433.5,365.6,348.7,335.5,251.5,335.5z"/>
	<path class="st0" d="M138.4,167.6l-63.9,59c-3,2.8-3.2,7.6-0.4,10.6c1.5,1.6,3.5,2.4,5.5,2.4c1.8,0,3.6-0.7,5.1-2l63.9-59
		c3-2.8,3.2-7.6,0.4-10.6S141.4,164.8,138.4,167.6z"/>
	<path class="st0" d="M393.9,326.2c-28.1-9.6-58.3-16.3-89.6-19.8c-4.1-0.5-7.8,2.5-8.3,6.6c-0.5,4.1,2.5,7.8,6.6,8.3
		c30.3,3.3,59.3,9.8,86.4,19c0.8,0.3,1.6,0.4,2.4,0.4c3.1,0,6-2,7.1-5.1C399.9,331.8,397.9,327.5,393.9,326.2z"/>
	<path class="st0" d="M178.4,130.6l-16,14.8c-3,2.8-3.2,7.6-0.4,10.6c1.5,1.6,3.5,2.4,5.5,2.4c1.8,0,3.6-0.7,5.1-2l16-14.8
		c3-2.8,3.2-7.6,0.4-10.6C186.2,128,181.5,127.8,178.4,130.6z"/>
</g>
</svg>
