<?xml version="1.0" encoding="utf-8"?>
<!-- Generator: Adobe Illustrator 25.4.1, SVG Export Plug-In . SVG Version: 6.00 Build 0)  -->
<svg version="1.1" id="Capa_1" xmlns="http://www.w3.org/2000/svg" xmlns:xlink="http://www.w3.org/1999/xlink" x="0px" y="0px"
	 viewBox="0 0 403.3 403.3" style="enable-background:new 0 0 403.3 403.3;" xml:space="preserve">
<style type="text/css">
	.st0{fill:#FFFFFF;}
</style>
<g>
	<path class="st0" d="M368.2,53.1c-22.7-22.7-52.9-35.2-85-35.2c-30.5,0-59.2,11.2-81.5,31.8C154.5,6.2,80.9,7.3,35.2,53.1
		c-46.9,46.9-46.9,123.2,0,170.1l159.4,159.4c1.9,1.9,4.4,2.9,7.1,2.9s5.2-1.1,7.1-2.9l159.4-159.4C415,176.2,415,100,368.2,53.1z
		 M354,209L201.7,361.3L49.3,209c-18.9-18.9-29.4-44.1-29.4-70.9c0-26.8,10.4-52,29.4-70.9c19.5-19.5,45.2-29.3,70.9-29.3
		c24.1,0,48.2,8.6,67.2,25.8l-29,29c-3.9,3.9-3.9,10.2,0,14.1c2,2,4.5,2.9,7.1,2.9s5.1-1,7.1-2.9l39.6-39.6
		c18.9-18.9,44.1-29.4,70.9-29.4s52,10.4,70.9,29.4C393.1,106.3,393.1,169.9,354,209z"/>
	<path class="st0" d="M312.6,54.1c-9.7-3.6-19.9-5.4-30.3-5.4c-5.5,0-10,4.5-10,10s4.5,10,10,10c8.1,0,15.9,1.4,23.4,4.1
		c1.1,0.4,2.3,0.6,3.4,0.6c4.1,0,7.9-2.5,9.4-6.6C320.4,61.8,317.8,56,312.6,54.1z"/>
	<path class="st0" d="M349.4,79.9c-3.6-4.2-9.9-4.7-14.1-1.2c-4.2,3.6-4.7,9.9-1.2,14.1c10.4,12.2,16.1,27.8,16.1,43.9
		c0,5.5,4.5,10,10,10s10-4.5,10-10C370.3,116,362.9,95.8,349.4,79.9z"/>
	<path class="st0" d="M185.3,298.8c-3.9-3.9-10.2-3.9-14.1,0c-3.9,3.9-3.9,10.2,0,14.1l14,14c2,2,4.5,2.9,7.1,2.9s5.1-1,7.1-2.9
		c3.9-3.9,3.9-10.2,0-14.1L185.3,298.8z"/>
	<path class="st0" d="M109.5,223.1c-3.9-3.9-10.2-3.9-14.1,0c-3.9,3.9-3.9,10.2,0,14.1l52.8,52.8c2,2,4.5,2.9,7.1,2.9s5.1-1,7.1-2.9
		c3.9-3.9,3.9-10.2,0-14.1L109.5,223.1z"/>
</g>
</svg>
