<?xml version="1.0" encoding="utf-8"?>
<!-- Generator: Adobe Illustrator 25.4.1, SVG Export Plug-In . SVG Version: 6.00 Build 0)  -->
<svg version="1.1" id="Layer_1" xmlns="http://www.w3.org/2000/svg" xmlns:xlink="http://www.w3.org/1999/xlink" x="0px" y="0px"
	 viewBox="0 0 500 204.6" style="enable-background:new 0 0 500 204.6;" xml:space="preserve">
<style type="text/css">
	.st0{fill:#FFFFFF;}
	.st1{fill:#707070;}
</style>
<g id="Group_9" transform="translate(-1395.359 -455.581)">
	<path id="Rectangle_5" class="st0" d="M1411,590.7l146-23.1c6.2-1,12,3.2,13,9.5l0,0c1,6.2-3.2,12-9.5,13l-146,23.1
		c-6.2,1-12-3.2-13-9.5l0,0C1400.5,597.5,1404.8,591.6,1411,590.7z"/>
	<path id="Path_3" class="st0" d="M1584.2,492.8l274.2-34.7l35.2,164l-289.2,35.5L1584.2,492.8z"/>
	<path id="Path_4" class="st0" d="M1525.5,601.1c0,0-16.8-9-12-16.1l65.5-88.3c5.7-8.2,16.2-2.4,17.8,10.5l16.4,133.7
		c1.6,12.9-7,21-14.5,14.4L1525.5,601.1z"/>
	
		<ellipse id="Ellipse_1" transform="matrix(0.9781 -0.208 0.208 0.9781 -85.7049 338.3189)" class="st1" cx="1565.8" cy="576.7" rx="18.2" ry="17.1"/>
</g>
<g>
</g>
<g>
	<g>
		<path class="st1" d="M263,156.1c-5.7,0.9-10.7,0.7-14.9-0.6c-4.3-1.3-7.7-3.5-10.2-6.5c-2.6-3-4.2-6.6-4.8-10.7
			c-0.2-1.5-0.4-3.4-0.4-5.7c0-2.3,0.2-4.7,0.6-7.1c0.5-2.4,1.3-4.5,2.4-6.2c1.2-1.8,2.9-2.8,5.1-3.2c0.8-0.1,1.5-0.1,2.1-0.1
			s1.2,0.2,1.7,0.4c0.5,0.2,0.9,0.4,1.3,0.7c-1.9,2.2-3.2,4.4-3.9,6.9c-0.7,2.4-1.1,4.7-1.2,6.8c-0.1,2.1,0,4,0.3,5.6
			c0.9,5.7,3.2,9.6,7,11.7c3.8,2,8.4,2.6,13.8,1.8c5.3-0.8,9-2.7,11-5.5c2-2.8,2.5-7.1,1.6-12.8l-4.6-29.2c-0.3-1.7-1-3.2-2.3-4.7
			c-1.2-1.4-2.4-2.4-3.6-3.1c0.4-0.5,1.1-1.1,2-1.7c0.9-0.6,1.9-1,3.1-1.2c0.7-0.1,1.5-0.1,2.4,0.1c0.9,0.2,1.8,0.6,2.6,1.2
			c0.9,0.6,1.7,1.5,2.3,2.8c0.7,1.3,1.2,2.9,1.5,5.1l4.7,29.4c1.1,6.8,0.1,12.5-3,17.1C276.7,151.9,271.1,154.9,263,156.1z
			 M282.6,129.4l-1-6.3l31-4.9c2.5-0.4,4.3-1.7,5.4-3.9s1.3-5.6,0.6-10.2c-1-6.4-3.2-10.8-6.5-13.1s-7.4-3.1-12.3-2.3
			c-3.9,0.6-7,1.9-9.4,3.7c-2.4,1.9-4.3,4.1-5.6,6.7c-1.3,2.6-2.3,5.2-3,8c-0.6,2.8-1.1,5.4-1.5,7.9l-4-1.2c0.3-1.9,0.5-4.1,0.8-6.6
			s0.7-5,1.4-7.6c0.7-2.6,1.8-5.1,3.4-7.5c1.5-2.4,3.7-4.4,6.4-6.2s6.2-2.9,10.6-3.6c7.6-1.2,13.9,0,18.8,3.5
			c4.9,3.6,8,9.2,9.2,16.9c1,6.1,0.3,11.1-2,14.9s-6,6.1-11.2,6.9L282.6,129.4z M294.3,76.9c-1.5,0.2-2.9-0.1-4.1-0.9
			c-1.2-0.9-1.9-2-2.1-3.4c-0.2-1.5,0.1-2.8,1-4c0.9-1.2,2.1-1.9,3.6-2.1c1.4-0.2,2.7,0.1,3.9,1c1.2,0.9,1.9,2,2.1,3.5
			c0.2,1.4-0.1,2.7-1,3.9C296.9,76,295.7,76.7,294.3,76.9z"/>
		<path class="st1" d="M360,117.1c-3.6,0.6-6.9,0.2-9.9-1.1s-5.6-3.4-7.7-6.4c-2.1-3-3.5-6.8-4.2-11.4c-1.1-6.8-0.1-12.4,3-16.8
			c3.1-4.4,7.8-7.1,14-8.1c4.6-0.7,8.5-0.4,11.7,1c3.2,1.4,5,3.6,5.5,6.6l5.3,33.5l-8.2,1.3l-5.3-33.5c-0.2-1.1-0.9-2-2.2-2.4
			c-1.3-0.5-3.2-0.5-5.8-0.1c-4,0.6-6.8,2.4-8.5,5.3c-1.7,2.9-2.2,6.9-1.4,12c0.8,5,2.5,8.7,5.2,11c2.7,2.3,6.1,3.1,10.2,2.5l15-2.4
			l1,6.3L360,117.1z M369.9,136.9c-0.8,0.1-1.5,0.1-2.1,0.1c-0.6-0.1-1.2-0.2-1.7-0.5c-0.5-0.2-0.9-0.4-1.3-0.6
			c2.1-2.4,3.5-4.9,4.2-7.4c0.7-2.5,1-4.8,1-7.1c0-2.3-0.2-4.2-0.4-5.7l-1-6.3l8.2-1.3l1,6.3c0.3,2.1,0.5,4.4,0.5,6.9
			c0,2.5-0.2,4.8-0.7,7.1c-0.5,2.2-1.4,4.2-2.6,5.7C373.7,135.6,372.1,136.5,369.9,136.9z"/>
		<path class="st1" d="M393.5,133.1c-0.8,0.1-1.5,0.1-2.1,0.1c-0.6-0.1-1.2-0.2-1.7-0.5c-0.5-0.2-0.9-0.4-1.3-0.6
			c2.1-2.4,3.5-4.9,4.2-7.4c0.7-2.5,1-4.8,1-7.1c0-2.3-0.2-4.2-0.4-5.7l-6.3-39.5c-0.2-1.5,0-2.6,0.7-3.3c0.7-0.7,1.6-1.1,2.8-1.3
			c1.1-0.2,2.2,0,3,0.4c0.9,0.5,1.4,1.4,1.7,2.9l6.3,39.5c0.3,2.1,0.5,4.4,0.5,6.9c0,2.5-0.2,4.8-0.7,7.1c-0.5,2.2-1.4,4.2-2.6,5.7
			C397.3,131.8,395.6,132.8,393.5,133.1z M401.3,110.6l-1-6.3l11.2-1.8l1,6.3L401.3,110.6z M412.5,108.8l-1-6.3
			c0.7-0.1,1.3,0.1,1.6,0.6c0.3,0.5,0.6,1.3,0.7,2.3c0.2,1,0.2,1.8,0,2.4C413.7,108.3,413.3,108.7,412.5,108.8z"/>
		<path class="st1" d="M412.5,108.8c-0.7,0.1-1.3-0.1-1.6-0.6c-0.3-0.5-0.6-1.3-0.7-2.3c-0.2-1-0.2-1.8,0-2.4c0.2-0.6,0.6-0.9,1.3-1
			L412.5,108.8z M412.5,108.8l-1-6.3l13.1-2.1l0.4,2.3c-2.5-1.4-4.6-3.5-6.3-6.2c-1.8-2.7-3-6.2-3.7-10.4c-0.5-3.4-0.6-6.6-0.1-9.4
			c0.5-2.8,1.4-5.3,2.8-7.4c1.4-2.1,3.2-3.9,5.4-5.2c2.2-1.3,4.7-2.2,7.6-2.7c2.1-0.3,4.1-0.4,5.9-0.2c1.8,0.2,3.5,0.7,4.9,1.4
			c1.4,0.7,2.6,1.6,3.5,2.7c0.9,1.1,1.5,2.4,1.7,3.9c0.2,1.4,0.1,2.5-0.3,3.4c-0.5,0.9-1.1,1.6-1.9,2.1c-0.6,0.4-1.3,0.7-2.1,0.9
			c-0.8,0.2-1.4,0.3-1.9,0.4c-0.4-2.2-1.1-4-2.1-5.1c-1.1-1.2-2.4-2-4-2.5c-1.6-0.5-3.4-0.8-5.4-0.8l5.4,0.2c-3,0-5.4,0.6-7.2,1.9
			c-1.8,1.3-3.1,3.2-3.8,5.8c-0.7,2.5-0.7,5.6-0.2,9.2c0.8,4.9,2.4,8.6,4.7,11.1c2.4,2.5,5.4,3.5,9.2,2.9l12.2-1.9
			c1.1-0.2,2,0,2.6,0.6s0.9,1.3,1,2.1c0.1,0.8,0,1.6-0.3,2.3s-1.1,1.2-2.3,1.3L412.5,108.8z"/>
	</g>
</g>
</svg>
