<?xml version="1.0" encoding="utf-8"?>
<!-- Generator: Adobe Illustrator 25.4.1, SVG Export Plug-In . SVG Version: 6.00 Build 0)  -->
<svg version="1.1" id="Layer_1" xmlns="http://www.w3.org/2000/svg" xmlns:xlink="http://www.w3.org/1999/xlink" x="0px" y="0px"
	 viewBox="0 0 500 204.6" style="enable-background:new 0 0 500 204.6;" xml:space="preserve">
<style type="text/css">
	.st0{fill:#FFFFFF;}
	.st1{fill:#707070;}
</style>
<g id="Group_9" transform="translate(-1395.359 -455.581)">
	<path id="Rectangle_5" class="st0" d="M1411,590.7l146-23.1c6.2-1,12,3.2,13,9.5l0,0c1,6.2-3.2,12-9.5,13l-146,23.1
		c-6.2,1-12-3.2-13-9.5l0,0C1400.5,597.5,1404.8,591.6,1411,590.7z"/>
	<path id="Path_3" class="st0" d="M1584.2,492.8l274.2-34.7l35.2,164l-289.2,35.5L1584.2,492.8z"/>
	<path id="Path_4" class="st0" d="M1525.5,601.1c0,0-16.8-9-12-16.1l65.5-88.3c5.7-8.2,16.2-2.4,17.8,10.5l16.4,133.7
		c1.6,12.9-7,21-14.5,14.4L1525.5,601.1z"/>
	
		<ellipse id="Ellipse_1" transform="matrix(0.9781 -0.208 0.208 0.9781 -85.7133 338.3216)" class="st1" cx="1565.9" cy="576.7" rx="18.2" ry="17.1"/>
</g>
<g>
	<g>
		<path class="st1" d="M281.9,147.7c-3,0.5-6,0.8-9.2,0.7c-3.1-0.1-6.1-0.5-8.8-1.2c-2.7-0.7-5-1.8-6.8-3.2
			c-1.8-1.4-2.9-3.2-3.3-5.2l-2.2-12l2-0.4c2.6,7.3,6.1,12.3,10.4,14.9c4.3,2.6,9.6,3.3,16,2.2c2.5-0.5,4.8-1.3,6.9-2.6
			s3.7-2.9,4.7-4.9c1.1-2,1.4-4.2,0.9-6.6c-0.6-3.3-2.1-5.9-4.6-7.8c-2.5-1.9-6-3.7-10.5-5.4l-15.3-5.7c-5.3-2-9.2-4.2-11.7-6.8
			c-2.5-2.5-4.1-5.9-4.9-10.1c-1-5.7,0.1-10.7,3.5-14.9c3.4-4.2,8.3-6.9,14.8-8.1c2.8-0.5,5.6-0.7,8.6-0.6c2.9,0.1,5.7,0.5,8.3,1.2
			c2.6,0.7,4.8,1.8,6.5,3.1c1.8,1.4,2.8,3.1,3.2,5.3l2.2,12l-2,0.4c-2.6-7.3-6.1-12.2-10.2-14.8c-4.2-2.6-9.4-3.3-15.8-2.1
			c-2.2,0.4-4.2,1.2-6,2.5c-1.8,1.3-3.2,2.9-4.2,4.8c-0.9,1.9-1.2,4-0.8,6.3c0.6,3.2,2.1,5.7,4.6,7.4c2.5,1.7,6,3.4,10.5,5l15.3,5.7
			c5.3,2,9.3,4.1,12,6.3c2.7,2.2,4.5,5.5,5.2,9.6c1.1,6.3,0,11.7-3.5,16.2C294.4,143.5,289.1,146.4,281.9,147.7z"/>
		<path class="st1" d="M330.5,138c-1.6,0.3-3.3,0.4-5.2,0.2c-1.9-0.2-3.8-0.7-5.8-1.5c-1.9-0.9-3.6-2.2-5.1-4
			c-1.5-1.8-2.5-4.3-3-7.3c-0.8-4.1,0-7.5,2.2-10.2c2.2-2.7,5.5-4.9,9.7-6.7c4.2-1.7,8.8-3.1,13.8-4l3.4-0.6
			c-1-5.2-2.2-9.1-3.7-11.6c-1.5-2.5-3.3-4.1-5.2-4.8c-1.9-0.7-4-0.8-6.3-0.4c-3.1,0.6-5.6,1.7-7.5,3.5c-1.9,1.7-2.9,4.5-3.1,8.3
			l-5,0.9c-0.4-1.9-0.6-3.8-0.7-5.5c-0.1-1.7,0.5-3.4,1.6-5.1c1.2-1.7,3.3-3.1,6.4-4.3c3.1-1.2,6.3-2.1,9.7-2.7
			c2.5-0.5,5-0.6,7.5-0.4c2.5,0.2,4.7,0.9,6.9,2.2c2.1,1.3,4,3.4,5.7,6.3c1.6,2.9,2.9,6.9,3.9,12l5.5,30.2l-5.6,1l-4.8-4.3L345,129
			c-0.9,1.6-2.4,3.3-4.7,5.1C338,136,334.7,137.3,330.5,138z M334.6,132.1c2.8-0.5,4.8-1.6,6.2-3.3c1.4-1.7,2.4-3.5,3.2-5.4
			l-2.8-15.1l-3.4,0.6c-5.6,1-9.8,2.9-12.6,5.5c-2.8,2.6-3.9,5.6-3.3,9c0.7,3.7,2.2,6.1,4.7,7.5
			C329.2,132.2,331.8,132.6,334.6,132.1z"/>
		<path class="st1" d="M372,129.3l-11-60.5c-0.6-3.4-1.6-6-2.9-7.9c-1.3-1.9-3.6-2.5-7-1.9l-2.2,0.4l-0.4-2.2l10.1-1.8
			c2.6-0.5,4.7-0.5,6.3-0.1c1.6,0.4,2.8,1.5,3.8,3.4c1,1.8,1.8,4.6,2.5,8.3l11,60.4L372,129.3z"/>
		<path class="st1" d="M419.3,121.8c-5.2,1-9.8,0.5-13.7-1.3c-3.9-1.8-7.1-4.7-9.7-8.5c-2.5-3.9-4.2-8.3-5.1-13.3
			c-0.9-5.1-0.9-9.8,0.2-14.3c1-4.5,3-8.2,5.9-11.3c2.9-3.1,6.7-5,11.3-5.9c5.1-0.9,9.4-0.7,13.1,0.6c3.7,1.3,6.6,3.6,8.9,7
			c2.3,3.4,3.9,7.7,4.9,13l0.6,4.5l-33.9,6.2c1.1,6.1,3.4,11,6.8,14.5c3.4,3.5,7.5,4.9,12.2,4c3.7-0.7,6.6-2,8.7-4
			c2.1-2,3.9-4.6,5.3-7.8l2.5,1.3c-1.1,3.1-2.6,5.8-4.3,7.8c-1.7,2.1-3.8,3.8-6,5C424.7,120.4,422.2,121.3,419.3,121.8z M401,93.9
			l23.5-4.3c-1.2-6.5-3.1-11.3-5.6-14.4c-2.6-3.1-5.8-4.3-9.8-3.6c-2.2,0.4-4.1,1.7-5.5,3.7c-1.4,2.1-2.4,4.7-2.9,7.9
			C400.1,86.5,400.2,90,401,93.9z"/>
	</g>
</g>
</svg>
